<?xml version="1.0" standalone="no"?>
<!DOCTYPE svg PUBLIC "-//W3C//DTD SVG 20010904//EN"
 "http://www.w3.org/TR/2001/REC-SVG-20010904/DTD/svg10.dtd">
<svg version="1.0" xmlns="http://www.w3.org/2000/svg"
 width="197.000000pt" height="197.000000pt" viewBox="0 0 197.000000 197.000000"
 preserveAspectRatio="xMidYMid meet">
<metadata>
Created by potrace 1.11, written by Peter Selinger 2001-2013
</metadata>
<g transform="translate(0.000000,197.000000) scale(0.100000,-0.100000)"
fill="#000000" stroke="none">
<path d="M625 1560 l170 -170 -167 -168 c-155 -155 -170 -174 -207 -252 -49
-106 -65 -187 -58 -293 13 -205 155 -421 329 -502 82 -37 171 -55 183 -35 4 7
-6 30 -24 55 -40 56 -65 160 -56 237 13 111 49 164 243 360 l176 178 166 -165
c91 -91 169 -165 173 -165 4 0 7 245 7 545 l0 545 -552 0 -553 0 170 -170z"/>
</g>
</svg>
